<svg fill="none" height="180" viewBox="0 0 180 180" width="180" xmlns="http://www.w3.org/2000/svg"><path d="m4 4h172v172h-172z" fill="none"/><g fill="currentColor"><path d="m76 119.697-5.6259-9.173-10.1847 6.115.291-11.083h-11.0578l.291 11.083-10.1847-6.115-5.5289 9.173 9.8938 5.351-9.8938 5.255 5.5289 9.173 10.1847-6.02-.291 10.988h11.0578l-.291-10.988 10.1847 6.02 5.6259-9.173-9.8938-5.255z"/><path d="m67.4444 60.7092c0-10.6737-16.332-7.364-16.332-11.7908 0-1.4479 1.2341-2.6063 4.6487-2.6063 2.5094 0 5.2246.7446 7.9808 2.234l2.5095-6.0816c-2.3038-1.3652-5.3069-2.1926-8.3511-2.4409v-4.468h-4.9367v4.5508c-6.6644.8274-9.9144 4.6749-9.9144 9.2258 0 10.7565 16.3732 7.4054 16.3732 11.9976 0 1.4066-1.3164 2.3581-4.6898 2.3581-3.3322 0-6.9524-1.1583-9.503-2.8546l-2.6741 6.0402c2.3861 1.6549 6.2943 2.8546 10.4081 3.1442v4.4267h4.9367v-4.5921c6.4176-.9516 9.5441-4.7577 9.5441-9.1431z"/><path d="m120.861 129.964h8.278l2.083-24.408h-12.389zm4.166 14.48c3.673 0 6.195-2.578 6.195-5.759 0-3.236-2.522-5.649-6.195-5.649s-6.249 2.413-6.249 5.649c0 3.181 2.576 5.759 6.249 5.759z"/><path d="m144.444 51v-7.1667h-7.04l1.062-8.2777h-7.599l-1.062 8.2777h-6.872l1.061-8.2777h-7.599l-1.061 8.2777h-7.935v7.1667h7.041l-.95 8h-7.934v7.1667h7.04l-1.062 8.2777h7.599l1.062-8.2777h6.872l-1.061 8.2777h7.599l1.061-8.2777h7.879v-7.1667h-6.985l.95-8zm-16.483 8h-6.872l.95-8h6.872z"/></g><path d="m4 4h172v172h-172z" stroke="currentColor" stroke-width="8"/></svg>